# xmcd
#
# Track frame offsets:
#	150
#	18127
#	29825
#	55301
#	67139
#	77516
#	85868
#	98726
#	111654
#	121633
#	135059
#	154996
#	165593
#	176744
#	199970
#	217502
#
# Disc length: 3099 seconds
#
# Revision: 0
# Processed by: cddbd v1.5.2PL0 Copyright (c) Steve Scherf et al.
# Submitted via: EasyCDDAExtractor 11.5.3.1
#
DISCID=cf0c1910
DTITLE=Various Artist - campfire cd1
DYEAR=1998
DGENRE=Country
TTITLE0=ian and sylvia - early morning rain
TTITLE1=the rooftop singers - walk right in
TTITLE2=prairie oyster - one way track
TTITLE3=the weavers - jackhammer john
TTITLE4=the dillards - old train
TTITLE5=mississippi john hurt - corrina corrina
TTITLE6=richard and mimi farina - a swallow song
TTITLE7=new lost city ramblers - roll in my sweet babys arms
TTITLE8=phil ochs - there but for fortune
TTITLE9=joan baez - stewball
TTITLE10=jerry jeff walker - morning song to sally
TTITLE11=ian and sylvia - some day soon
TTITLE12=tom paxton - did you hear john hurt
TTITLE13=eric andersen - blind fiddler
TTITLE14=the weavers - good night irene
TTITLE15=john hammond - barbecue blues
EXTD=
EXTT0=
EXTT1=
EXTT2=
EXTT3=
EXTT4=
EXTT5=
EXTT6=
EXTT7=
EXTT8=
EXTT9=
EXTT10=
EXTT11=
EXTT12=
EXTT13=
EXTT14=
EXTT15=
PLAYORDER=
